# xmcd
#
# Track frame offsets:
# 150
# 15162
# 32700
# 54045
# 69060
# 90997
# 109162
# 126292
# 140290
# 152642
# 169925
# 186340
# 197910
# 211522
# 224772
# 236947
# 251000
# 263395
# 275790
# 295402
#
# Disc length: 4124 seconds
#
#
# Revision: 2
# Processed by: cddbd v1.5.1PL0 Copyright (c) Steve Scherf et al.
# Submitted via: FreeRIP 2.91 
#
DISCID=1e101a14
DTITLE=Chitãozinho e Xororó - CH&X
DYEAR=2003
DGENRE=sertaneja
TTITLE0=Tenho ciume de tudo
TTITLE1=Adeus Solidão
TTITLE2=Falando às paredes
TTITLE3=Pé na estrada
TTITLE4=Vem mais pra cá
TTITLE5=Não desligue o rádio
TTITLE6=Obras do poeta
TTITLE7=Cheiro de relva
TTITLE8=Amante Amada
TTITLE9=Meu disfarce
TTITLE10=Amor a 3
TTITLE11=Cama de casal
TTITLE12=A carne é fraca
TTITLE13=Fotografia
TTITLE14=Caminhos de minha infância
TTITLE15=Amigo do peito
TTITLE16=Doce amada
TTITLE17=Estrada da vida
TTITLE18=Eu voltei
TTITLE19=Perto e branco
EXTD=
EXTT0=
EXTT1=
EXTT2=
EXTT3=
EXTT4=
EXTT5=
EXTT6=
EXTT7=
EXTT8=
EXTT9=
EXTT10=
EXTT11=
EXTT12=
EXTT13=
EXTT14=
EXTT15=
EXTT16=
EXTT17=
EXTT18=
EXTT19=
PLAYORDER=
